/* XPM */
static char * rightarrow_xpm[] = {
"13 13 2 1",
" 	c None",
".	c #000000",
"             ",
"    .        ",
"    ..       ",
"    ...      ",
"    ....     ",
"    .....    ",
"    ......   ",
"    .....    ",
"    ....     ",
"    ...      ",
"    ..       ",
"    .        ",
"             "};
